o Battery
v 0.236766 0.938727 1.516693
v 0.236766 0.938727 0.880097
v 0.236766 0.826313 0.880097
v 0.236766 0.826313 1.516693
v -0.883629 0.938726 1.516693
v -0.883629 0.938726 0.880097
v 0.883629 0.938726 -0.880097
v -0.883629 0.938726 -0.880097
v 0.883628 0.938726 0.880098
v 0.236766 0.938727 -0.880097
v 0.236766 0.938727 -1.516693
v -0.883629 0.938726 -1.516693
v 0.883629 -0.599634 -1.516693
v 0.883629 -0.599634 1.516693
v -0.883629 -0.599634 1.516693
v -0.883628 -0.599634 -1.516694
v 0.883629 0.826312 -0.880097
v 0.883628 0.826312 1.516694
v 0.236766 0.826313 -1.516693
v 0.883629 0.826312 -1.516693
v 0.883629 0.826312 0.880097
v 0.236766 0.826313 -0.880097
v 0.555247 0.826313 -1.012886
v 0.389745 0.826313 -1.108438
v 0.389745 0.826313 -1.299543
v 0.720749 0.826312 -1.108438
v 0.720749 0.826312 -1.299543
v 0.555247 0.826313 -1.395095
v 0.555247 0.826313 1.392939
v 0.720749 0.826312 1.297386
v 0.720749 0.826312 1.106281
v 0.389745 0.826313 1.297386
v 0.720749 1.009896 1.106281
v 0.720749 1.009896 1.297386
v 0.555247 0.826313 1.010729
v 0.555247 1.009896 1.392939
v 0.389745 0.826313 1.106282
v 0.389745 1.009896 1.297386
v 0.555247 1.009896 1.010729
v 0.389745 1.009896 1.106282
v 0.720749 1.009896 -1.299543
v 0.555247 1.009896 -1.395095
v 0.389745 1.009896 -1.299543
v 0.720749 1.009896 -1.108438
v 0.389745 1.009896 -1.108438
v 0.555247 1.009896 -1.012886
vt 0.771233 0.000001
vt 0.771233 0.209863
vt 0.375000 0.790137
vt 0.771233 1.000000
vt 0.375000 1.000001
vt 0.771233 0.790137
vt 1.000000 0.790137
vt 0.375000 0.209863
vt 1.000000 0.209863
vt 0.375000 0.000001
vt 0.000000 0.350001
vt 0.000000 0.675001
vt 0.375000 0.675001
vt 0.237740 0.324426
vt 0.375000 0.324425
vt 0.375000 0.000002
vt 0.000000 0.000002
vt 0.884012 0.959913
vt 0.943177 0.928413
vt 1.000000 1.000000
vt 0.826316 0.928413
vt 0.943946 0.865413
vt 0.884453 0.833913
vt 0.827280 0.865413
vt 0.884434 0.166799
vt 0.943918 0.135299
vt 0.943827 0.072298
vt 1.000000 0.000000
vt 0.884376 0.040798
vt 0.375000 0.976252
vt 0.296301 0.976252
vt 0.078699 0.976252
vt 0.000000 0.976252
vt 0.827131 0.072298
vt 0.827244 0.135298
vt 0.296302 1.000001
vt 0.078699 1.000001
vt 0.000000 1.000001
vt 0.237740 0.350002
vt 0.296301 1.000001
vt 0.375000 0.350001
vn 1.000000 0.000002 0.000000
vn -0.000001 1.000000 0.000000
vn -0.000000 0.241601 0.970376
vn 0.000000 1.000000 0.000000
vn 0.000002 1.000000 0.000000
vn -0.000001 1.000000 -0.000001
vn 0.000000 -1.000000 0.000000
vn 0.000002 0.000001 -1.000000
vn -0.000000 -0.000001 1.000000
vn 0.000001 1.000000 -0.000001
vn 0.000002 1.000000 -0.000001
vn 0.000001 1.000000 0.000000
vn 0.000002 1.000000 0.000001
vn 1.000000 -0.000000 0.000001
vn 1.000000 0.000000 0.000000
vn 0.499999 0.000000 -0.866026
vn 0.500001 0.000000 0.866025
vn -0.500000 0.000000 0.866025
vn -0.500000 0.000000 -0.866025
vn -1.000000 0.000000 0.000000
vn 0.500000 0.000000 -0.866026
vn 0.499999 0.000000 0.866026
vn -0.500000 0.000000 0.866026
vn 0.000000 0.000000 -1.000000
vn -0.000000 0.000000 1.000000
vn -0.000002 0.000002 1.000000
vn 0.000000 0.000001 1.000000
vn 1.000000 -0.000003 -0.000002
vn 1.000000 0.000004 0.000001
vn 0.500001 0.000000 -0.866025
vn -0.500001 0.000000 -0.866025
vn 0.500000 0.000000 -0.866025
vn 0.500000 0.000000 0.866026
vn -0.499999 0.000000 -0.866026
vn 0.000001 0.000004 -1.000000
vn -0.000001 -0.000005 1.000000
s off
f 4/1/1 3/2/1 2/2/1
f 8/3/2 11/4/2 12/5/2
f 8/3/2 10/6/2 11/4/2
f 8/3/3 7/7/3 10/6/3
f 6/8/4 7/7/4 8/3/4
f 7/7/5 2/2/5 9/9/5
f 6/8/6 2/2/6 7/7/6
f 5/10/2 2/2/2 6/8/2
f 1/1/2 2/2/2 5/10/2
f 14/11/7 15/12/7 16/13/7
f 19/14/8 20/15/8 13/16/8
f 15/17/9 14/16/9 18/15/9
f 28/18/10 27/19/10 20/20/10
f 20/20/5 19/4/5 28/18/5
f 19/4/11 25/21/11 28/18/11
f 17/7/12 20/20/12 27/19/12
f 26/22/12 23/23/12 17/7/12
f 22/6/5 24/24/5 25/21/5
f 23/23/13 22/6/13 17/7/13
f 22/6/13 23/23/13 24/24/13
f 35/25/12 31/26/12 21/9/12
f 30/27/12 18/28/12 21/9/12
f 30/27/12 29/29/12 18/28/12
f 20/30/14 17/31/14 13/13/14
f 13/13/15 17/31/15 14/12/15
f 21/32/14 18/33/14 14/12/14
f 39/25/16 33/26/16 31/26/16
f 30/27/15 31/26/15 33/26/15
f 36/29/17 29/29/17 30/27/17
f 38/34/18 32/34/18 29/29/18
f 33/26/4 39/25/4 40/35/4
f 33/26/4 40/35/4 34/27/4
f 40/35/4 38/34/4 34/27/4
f 38/34/4 36/29/4 34/27/4
f 40/35/19 39/25/19 35/25/19
f 40/35/20 37/35/20 32/34/20
f 42/18/21 41/19/21 27/19/21
f 41/19/15 44/22/15 26/22/15
f 46/23/22 23/23/22 26/22/22
f 45/24/23 24/24/23 23/23/23
f 41/19/4 42/18/4 43/21/4
f 41/19/4 43/21/4 44/22/4
f 43/21/4 45/24/4 44/22/4
f 45/24/4 46/23/4 44/22/4
f 43/21/19 42/18/19 28/18/19
f 43/21/20 25/21/20 24/24/20
f 12/5/20 16/13/20 15/12/20
f 12/5/20 15/12/20 8/36/20
f 15/12/20 6/37/20 8/36/20
f 15/12/20 5/38/20 6/37/20
f 12/11/24 13/16/24 16/17/24
f 12/11/24 19/14/24 13/16/24
f 12/11/24 11/39/24 19/14/24
f 4/14/25 1/39/25 5/11/25
f 15/17/25 4/14/25 5/11/25
f 15/17/26 18/15/26 4/14/26
f 19/4/1 11/4/1 10/6/1
f 17/7/24 22/6/24 10/6/24
f 21/9/11 3/2/11 35/25/11
f 3/2/11 37/35/11 35/25/11
f 3/2/5 4/1/5 32/34/5
f 29/29/11 4/1/11 18/28/11
f 4/1/11 29/29/11 32/34/11
f 2/2/27 3/2/27 21/9/27
f 14/12/28 17/31/28 7/40/28
f 21/32/29 7/40/29 9/37/29
f 21/32/15 14/12/15 7/40/15
f 1/1/15 4/1/15 2/2/15
f 13/41/7 14/11/7 16/13/7
f 26/22/12 17/7/12 27/19/12
f 19/4/5 22/6/5 25/21/5
f 31/26/12 30/27/12 21/9/12
f 35/25/30 39/25/30 31/26/30
f 34/27/15 30/27/15 33/26/15
f 34/27/22 36/29/22 30/27/22
f 36/29/18 38/34/18 29/29/18
f 37/35/31 40/35/31 35/25/31
f 38/34/20 40/35/20 32/34/20
f 28/18/32 42/18/32 27/19/32
f 27/19/15 41/19/15 26/22/15
f 44/22/33 46/23/33 26/22/33
f 46/23/18 45/24/18 23/23/18
f 25/21/34 43/21/34 28/18/34
f 45/24/20 43/21/20 24/24/20
f 22/6/1 19/4/1 10/6/1
f 7/7/35 17/7/35 10/6/35
f 37/35/5 3/2/5 32/34/5
f 9/9/36 2/2/36 21/9/36
